<?xml version="1.0" encoding="iso-8859-1"?>
<!-- Generator: Adobe Illustrator 19.0.0, SVG Export Plug-In . SVG Version: 6.00 Build 0)  -->
<svg xmlns="http://www.w3.org/2000/svg" xmlns:xlink="http://www.w3.org/1999/xlink" version="1.1" id="Capa_1" x="0px" y="0px" viewBox="0 0 512 512" style="enable-background:new 0 0 512 512;" xml:space="preserve" width="512px" height="512px">
<g>
	<g>
		<path d="M497,42.199H15c-8.284,0-15,6.716-15,15v309.979c0,8.284,6.716,15,15,15h173.273v57.624h-67.118c-8.284,0-15,6.716-15,15    s6.716,15,15,15h269.689c8.284,0,15-6.716,15-15s-6.716-15-15-15h-67.118v-57.624H497c8.284,0,15-6.716,15-15V57.199    C512,48.915,505.284,42.199,497,42.199z M293.727,439.803h-75.453v-57.624h75.453V439.803z M482,352.178H30V72.199h452V352.178z" fill="#e84545"/>
	</g>
</g>
<g>
	<g>
		<path d="M444.311,96.647H67.688c-8.284,0-15,6.716-15,15V312.73c0,8.284,6.716,15,15,15h376.623c8.284,0,15-6.716,15-15V111.647    C459.311,103.363,452.595,96.647,444.311,96.647z M429.311,297.73H82.688V126.647h346.623V297.73z" fill="#e84545"/>
	</g>
</g>
<g>
</g>
<g>
</g>
<g>
</g>
<g>
</g>
<g>
</g>
<g>
</g>
<g>
</g>
<g>
</g>
<g>
</g>
<g>
</g>
<g>
</g>
<g>
</g>
<g>
</g>
<g>
</g>
<g>
</g>
</svg>
